<svg width="2080" height="1562" viewBox="0 0 2080 1562" fill="none" xmlns="http://www.w3.org/2000/svg">
<rect width="2080" height="1562" fill="#E5E5E5"/>
<g id="undraw_Ride_a_bicycle_2yok 1" clip-path="url(#clip0)">
<g id="background">
<path d="M412.441 229.69C401.664 242.922 397.515 261.527 392.874 279.018C355.51 419.98 263.437 533.362 158.581 614.349C114.177 648.655 60.117 694.66 69.8317 756.167C75.0626 789.198 98.0121 813.514 115.062 840.417C150.833 896.75 162.436 973.32 145.386 1040.76C125.996 1117.49 71.7982 1189.08 88.5727 1266.67C98.9167 1314.42 134.039 1348.41 167.804 1377.62C220.481 1423.16 274.836 1465.82 330.869 1505.61C368.43 1532.27 408.39 1558.22 452.165 1561.6C490.709 1564.59 528.466 1549.76 565.063 1535.14C597.039 1522.34 629.821 1509.03 655.642 1483.4C672.495 1466.67 685.926 1445.08 704.648 1431.39C748.619 1399.23 805.098 1419.61 855.52 1433.38C974.495 1465.69 1101.83 1453.89 1215.04 1400.07C1388.71 1317.49 1521.07 1144.07 1690.94 1051.02C1763.98 1011.01 1843.43 986.175 1911.06 934.637C1949.16 905.294 1981.9 869.441 2007.81 828.697C2058.94 748.884 2086.59 647.122 2078.6 547.51C2070.62 447.898 2025.88 351.907 1955.62 295.673C1880.4 235.48 1785.39 224.237 1699.81 188.102C1611.44 150.772 1532.81 86.6187 1445.28 46.5629C1374.46 14.2409 1297.38 -1.62587 1219.7 0.126744C1142.02 1.87936 1065.72 21.2069 996.383 56.6912C901.124 105.443 804.567 219.183 698.473 227.819C622.879 233.789 471.476 157.219 412.441 229.69Z" fill="url(#paint0_linear)" style="mix-blend-mode:color-burn"/>
</g>
<g id="man-bike">
<path id="Vector" d="M761.047 1102.99L677.062 1019.12L650.818 1046.04L734.802 1129.9L761.047 1102.99Z" fill="#5F5F5F"/>
<path id="Vector_2" opacity="0.1" d="M761.047 1102.99L677.062 1019.12L650.818 1046.04L734.802 1129.9L761.047 1102.99Z" fill="#5F5F5F"/>
<path id="Vector_3" d="M697.096 978.991C697.096 978.991 745.846 952.964 764.686 936.209C776.027 926.169 788.221 917.16 801.125 909.286L862.285 871.618L990.109 861.669L996.009 883.557C996.009 883.557 1005.84 915.395 907.515 943.253C809.188 971.111 760.025 1014.89 760.025 1014.89C760.025 1014.89 697.096 1036.7 697.096 978.991Z" fill="#DB8B8B"/>
<path id="Vector_4" opacity="0.1" d="M765.236 1010.57C761.756 1013.26 760.025 1014.81 760.025 1014.81C760.025 1014.81 697.096 1036.7 697.096 978.991C697.096 978.991 700.144 977.359 704.962 974.633C709.83 982.654 716.648 989.278 724.766 993.873C732.884 998.468 742.031 1000.88 751.333 1000.88H758L765.236 1010.57Z" fill="black"/>
<path id="Vector_5" opacity="0.05" d="M994.16 894.541C988.693 906.262 969.834 925.524 907.515 943.174C827.654 965.798 780.221 998.89 765.236 1010.57C761.755 1013.26 760.025 1014.81 760.025 1014.81C760.025 1014.81 697.096 1036.7 697.096 978.991C697.096 978.991 700.144 977.359 704.962 974.633C719.573 966.535 750.507 948.765 764.627 936.13C775.965 926.086 788.159 917.077 801.066 909.207L862.226 871.539L884.998 869.768L990.05 861.589L995.95 883.478C995.95 883.478 997.326 887.756 994.16 894.541Z" fill="black"/>
<path id="Vector_6" d="M698.079 966.057L645.966 1000.88L798.569 1130.22C798.569 1130.22 820.988 1116.29 809.188 1100.37C809.188 1100.37 769.858 1066.54 767.891 1018.79L756.092 1002.87H749.425C738.153 1002.87 727.158 999.33 717.96 992.735C708.762 986.141 701.815 976.819 698.079 966.057Z" fill="#BA1D1D"/>
<path id="Vector_7" opacity="0.1" d="M994.16 894.541C962.696 879.16 885.883 877.508 885.883 877.508L885.057 869.768L990.109 861.589L996.009 883.478C996.009 883.478 997.326 887.756 994.16 894.541Z" fill="black"/>
<path id="Vector_8" d="M885.883 873.528C885.883 873.528 978.31 875.518 1001.91 895.417L990.109 654.644H862.285L885.883 873.528Z" fill="#16171E"/>
<path id="Vector_9" d="M960.139 726.199C960.139 726.199 1191.5 718.24 1196.22 748.506C1200.94 778.771 964.859 766.016 964.859 766.016C964.859 766.016 945.98 746.894 960.139 726.199Z" fill="#535461"/>
<path id="Vector_10" opacity="0.05" d="M960.139 726.199C960.139 726.199 1191.5 718.24 1196.22 748.506C1200.94 778.771 964.859 766.016 964.859 766.016C964.859 766.016 945.98 746.894 960.139 726.199Z" fill="black"/>
<path id="Vector_11" d="M772.847 847.242H731.923V1207.17H772.847V847.242Z" fill="#E7D10D"/>
<path id="Vector_12" opacity="0.1" d="M772.847 847.222V874.941C759.238 876.732 745.315 877.866 731.923 878.304V847.222H772.847Z" fill="black"/>
<path id="Vector_13" d="M769.779 817.394C764.037 816.945 758.325 816.168 752.67 815.066C730.488 810.768 674.559 801.754 659.516 817.056C640.637 836.159 646.93 869.608 697.293 874.384C747.656 879.16 834.222 866.425 851.547 847.302C851.547 847.222 820.221 821.314 769.779 817.394Z" fill="#535461"/>
<path id="Vector_14" d="M761.834 945.979L1191.52 810.609L1205.68 844.059L764.98 996.94L761.834 945.979Z" fill="#E7D10D"/>
<path id="Vector_15" d="M889.324 1159.39L1199.39 850.426L1216.69 875.896L920.789 1188.05L889.324 1159.39Z" fill="#E7D10D"/>
<path id="Vector_16" opacity="0.1" d="M1285.29 1054.33C1275.46 1056.9 1265.88 1060.34 1256.65 1064.61L1237.85 1011.47C1247.72 1007.11 1257.88 1003.48 1268.26 1000.58L1285.29 1054.33Z" fill="black"/>
<path id="Vector_17" d="M1337.89 1210.35L1315.86 1223.09L1162.2 788.641L1155.32 769.2L1191.52 748.486L1200.59 777.1L1337.89 1210.35Z" fill="#535461"/>
<path id="Vector_18" opacity="0.1" d="M1200.59 777.1L1162.2 788.641L1155.32 769.2L1191.52 748.486L1200.59 777.1Z" fill="black"/>
<path id="Vector_19" d="M966.432 810.609L1182.06 735.75C1182.06 735.75 1219.84 740.526 1205.66 772.384L988.477 837.671C988.477 837.671 955.439 840.855 966.432 810.609Z" fill="#535461"/>
<path id="Vector_20" opacity="0.1" d="M723.271 1225.47C723.269 1237.68 722.335 1249.87 720.478 1261.93C701.599 1260.56 682.091 1258.57 662.977 1256.58C667.223 1232.92 666.695 1208.63 661.423 1185.18C680.046 1181.2 699.063 1177.4 717.627 1173.96C721.388 1190.87 723.281 1208.14 723.271 1225.47Z" fill="black"/>
<path id="Vector_21" opacity="0.1" d="M772.847 1164.82V1207.15H731.923V1171.33C746.082 1168.84 759.848 1166.63 772.847 1164.82Z" fill="black"/>
<path id="Vector_22" d="M508.427 1224.74C508.427 1224.74 838.962 1137.18 865.706 1170.59C892.451 1204 920.789 1248.62 837.447 1264.54C754.106 1280.45 502.193 1237.45 502.193 1237.45L508.427 1224.74Z" fill="#5F5F5F"/>
<path id="Vector_23" opacity="0.1" d="M671 1077.25L628.995 1116.15C621.557 1106.49 613.147 1097.63 603.902 1089.73L643.115 1048.28C653.211 1057.11 662.54 1066.8 671 1077.25Z" fill="black"/>
<path id="Vector_24" d="M497.414 1207.17L744.509 945.979L752.395 1006.49L510 1231.05L497.414 1207.17Z" fill="#5F5F5F"/>
<path id="Vector_25" opacity="0.1" d="M494.268 1250.17C508.181 1250.17 519.459 1238.76 519.459 1224.68C519.459 1210.6 508.181 1199.19 494.268 1199.19C480.355 1199.19 469.077 1210.6 469.077 1224.68C469.077 1238.76 480.355 1250.17 494.268 1250.17Z" fill="black"/>
<path id="Vector_26" d="M491.102 1250.17C505.015 1250.17 516.293 1238.76 516.293 1224.68C516.293 1210.6 505.015 1199.19 491.102 1199.19C477.189 1199.19 465.911 1210.6 465.911 1224.68C465.911 1238.76 477.189 1250.17 491.102 1250.17Z" fill="#535461"/>
<path id="Vector_27" opacity="0.1" d="M1327.66 1247.78C1341.58 1247.78 1352.86 1236.37 1352.86 1222.29C1352.86 1208.21 1341.58 1196.8 1327.66 1196.8C1313.75 1196.8 1302.47 1208.21 1302.47 1222.29C1302.47 1236.37 1313.75 1247.78 1327.66 1247.78Z" fill="black"/>
<path id="Vector_28" d="M1329.24 1250.97C1343.15 1250.97 1354.43 1239.55 1354.43 1225.47C1354.43 1211.4 1343.15 1199.98 1329.24 1199.98C1315.32 1199.98 1304.05 1211.4 1304.05 1225.47C1304.05 1239.55 1315.32 1250.97 1329.24 1250.97Z" fill="#535461"/>
<path id="Vector_29" opacity="0.1" d="M881.439 1250.17C909.253 1250.17 931.801 1227.35 931.801 1199.21C931.801 1171.06 909.253 1148.25 881.439 1148.25C853.624 1148.25 831.076 1171.06 831.076 1199.21C831.076 1227.35 853.624 1250.17 881.439 1250.17Z" fill="black"/>
<path id="Vector_30" d="M884.605 1250.17C912.419 1250.17 934.967 1227.35 934.967 1199.21C934.967 1171.06 912.419 1148.25 884.605 1148.25C856.79 1148.25 834.242 1171.06 834.242 1199.21C834.242 1227.35 856.79 1250.17 884.605 1250.17Z" fill="#535461"/>
<path id="Vector_31" d="M871.158 1195.38L871.142 1195.39C865.228 1199.87 864.019 1208.35 868.442 1214.33L908.414 1268.42C912.837 1274.4 921.217 1275.63 927.131 1271.15L927.147 1271.14C933.061 1266.66 934.27 1258.18 929.848 1252.2L889.876 1198.11C885.453 1192.13 877.072 1190.9 871.158 1195.38Z" fill="#6C63FF"/>
<path id="Vector_32" d="M1112.03 491.475L1107.35 551.39C1106.81 558.979 1106.91 566.601 1107.65 574.174C1108.26 580.88 1107.65 592.62 1101.16 610.529C1092.83 633.406 1088.52 657.584 1088.44 681.965V750.157L1043.21 742.198C1043.21 742.198 1045.17 646.684 1037.31 630.766C1029.44 614.847 1043.21 473.567 1043.21 473.567L1112.03 491.475Z" fill="#DB8B8B"/>
<path id="Vector_33" opacity="0.05" d="M1109.71 521.164L1107.35 551.39C1106.82 558.973 1106.93 566.589 1107.67 574.154C1108.28 580.86 1107.67 592.6 1101.18 610.529C1092.85 633.406 1088.54 657.584 1088.46 681.965V750.157L1043.22 742.198C1043.22 742.198 1045.19 646.684 1037.33 630.766C1031.76 619.483 1037.03 545.321 1040.59 502.997C1042.06 485.585 1043.22 473.567 1043.22 473.567L1112.05 491.475L1109.71 521.164Z" fill="black"/>
<path id="Vector_34" d="M887.889 949.143L870.879 1047.04C868.734 1060.12 865.443 1072.97 861.046 1085.45C851.076 1113.03 857.447 1151.69 862.285 1172.78C864.428 1182.1 866.218 1187.99 866.218 1187.99L815.088 1215.84L799.356 1203.9V1195.95L797.389 1018.85C785.59 990.99 789.523 949.203 797.389 933.284C799.626 928.054 801.199 922.558 802.07 916.927C806.003 895.596 807.222 865.629 807.222 865.629C807.222 865.629 838.686 811.902 876.051 847.72C889.816 860.913 895.047 878.165 896.148 894.681C898.076 922.957 887.889 949.143 887.889 949.143Z" fill="#DB8B8B"/>
<path id="Vector_35" opacity="0.1" d="M896.148 894.621C868.873 911.017 821.42 915.654 802.07 916.868C806.003 895.536 807.222 865.569 807.222 865.569C807.222 865.569 838.686 811.843 876.05 847.66C889.816 860.853 895.047 878.105 896.148 894.621Z" fill="black"/>
<path id="Vector_36" d="M962.578 845.67C941.666 856.939 921.905 870.269 903.582 885.468C872.117 911.336 793.456 913.326 793.456 913.326V883.478C795.423 847.66 761.992 807.863 716.761 696.431C687.873 625.274 695.877 584.999 705.434 565.1C710.862 553.858 716.761 549.181 716.761 549.181L962.578 596.938L971.368 623.602L990.109 680.512C990.109 680.512 921.281 684.492 909.482 690.461C897.682 696.431 905.548 750.157 905.548 750.157C893.749 805.873 962.578 845.67 962.578 845.67Z" fill="#111213"/>
<path id="Vector_37" opacity="0.1" d="M1112.03 491.475L1109.71 521.164C1075.5 531.113 1051.07 499.435 1051.07 499.435C1047.5 500.403 1044 501.593 1040.57 502.997C1042.05 485.585 1043.21 473.567 1043.21 473.567L1112.03 491.475Z" fill="black"/>
<path id="Vector_38" opacity="0.1" d="M971.368 623.602C970.444 632.895 970.444 638.725 970.444 638.725C970.444 638.725 925.214 676.532 848.519 618.826C771.824 561.121 702.996 577.039 702.996 577.039C702.996 577.039 703.802 572.423 705.434 565.1C710.862 553.858 716.761 549.181 716.761 549.181L962.578 596.938L971.368 623.602Z" fill="black"/>
<path id="Vector_39" d="M1133.33 418.48C1128.19 458.974 1126.48 510.013 1126.48 510.013C1081.25 545.831 1045.85 500.064 1045.85 500.064C1003.14 511.665 983.063 549.492 973.604 582.504C968.537 600.36 965.723 618.793 965.226 637.364C965.226 637.364 953.27 647.314 931.245 649.304C910.419 651.075 880.567 645.583 843.301 617.466C766.606 559.76 697.778 575.679 697.778 575.679C697.778 575.679 711.544 496.084 743.008 472.206C774.473 448.328 798.071 418.48 837.402 326.946C876.732 235.413 957.36 257.301 957.36 257.301C957.36 257.301 961.293 239.392 1034.05 257.301C1051.78 262.001 1068.18 270.794 1081.98 282.99C1120.9 316.102 1139.78 367.46 1133.33 418.48Z" fill="white"/>
<path id="Vector_40" d="M1065.56 297.464C1065.47 300.111 1065.25 303.056 1064.9 306.339C1060.96 342.156 1057.03 338.177 1013.77 346.136C986.864 351.091 972.882 328.347 966.157 310.438C963.723 303.951 961.886 297.249 960.67 290.42L1055.06 274.501C1055.06 274.501 1066.37 271.297 1065.56 297.464Z" fill="#DB8B8B"/>
<path id="Vector_41" opacity="0.05" d="M978.821 577.895C973.755 595.752 970.94 614.185 970.444 632.756C970.444 632.756 958.487 642.705 936.462 644.695C935.842 643.427 935.367 642.092 935.046 640.715C931.113 622.806 901.615 590.968 901.615 590.968C881.95 573.06 878.017 541.222 878.017 541.222L845.569 444.714L834.753 435.759C834.753 435.759 879.983 399.942 919.314 429.79C958.645 459.638 946.845 523.313 946.845 523.313L954.711 545.202C962.873 552.166 971.171 564.444 978.821 577.895Z" fill="black"/>
<path id="Vector_42" d="M840.653 433.77L883.917 539.232C883.917 539.232 887.85 571.07 907.515 588.979C907.515 588.979 937.013 620.816 940.946 638.725C944.879 656.634 999.942 704.39 999.942 704.39C999.942 704.39 1051.07 752.147 1055 770.056C1055 770.056 1102.2 783.985 1096.3 811.843C1096.3 811.843 1131.7 776.025 1096.3 742.198C1060.9 708.37 1013.71 638.725 1013.71 638.725C1013.71 638.725 986.176 565.1 960.611 543.212L952.745 521.323C952.745 521.323 964.544 457.648 925.214 427.8C885.883 397.952 840.653 433.77 840.653 433.77Z" fill="#DB8B8B"/>
<path id="Vector_43" opacity="0.1" d="M866.218 1187.93L815.088 1215.78L799.356 1203.85V1195.89C817.023 1194.62 834.188 1189.37 849.601 1180.54C854.32 1177.84 858.765 1175.17 862.324 1172.82C864.389 1182.04 866.218 1187.93 866.218 1187.93Z" fill="black"/>
<path id="Vector_44" opacity="0.1" d="M925.214 350.196L952.745 459.638C952.745 459.638 868.184 473.567 850.485 459.638C832.787 445.709 799.356 441.729 799.356 441.729C799.356 441.729 834.753 338.256 854.419 326.317C874.084 314.378 925.214 350.196 925.214 350.196Z" fill="black"/>
<path id="Vector_45" d="M925.214 346.216L952.745 455.658C952.745 455.658 868.184 469.587 850.485 455.658C832.787 441.729 799.356 437.749 799.356 437.749C799.356 437.749 834.753 334.276 854.419 322.337C874.084 310.398 925.214 346.216 925.214 346.216Z" fill="white"/>
<path id="Vector_46" opacity="0.1" d="M1065.56 295.474C1060.06 303.167 1053.05 309.639 1044.98 314.491C1036.91 319.343 1027.94 322.473 1018.63 323.688C1009.32 324.904 999.861 324.178 990.837 321.558C981.812 318.937 973.414 314.475 966.157 308.448C963.723 301.961 961.886 295.259 960.67 288.43L1055.06 272.511C1055.06 272.511 1066.37 269.307 1065.56 295.474Z" fill="black"/>
<path id="Vector_47" d="M1078.6 252.692C1078.6 271.163 1071.35 288.878 1058.44 301.939C1045.54 315 1028.03 322.337 1009.77 322.337C991.52 322.337 974.013 315 961.105 301.939C948.197 288.878 940.946 271.163 940.946 252.692C940.946 251.538 940.946 250.384 940.946 249.23C941.4 230.759 949.086 213.227 962.315 200.49C975.544 187.754 993.231 180.857 1011.49 181.316C1029.74 181.775 1047.07 189.553 1059.65 202.939C1072.24 216.324 1079.06 234.221 1078.6 252.692Z" fill="#DB8B8B"/>
<path id="Vector_48" opacity="0.1" d="M1078.6 252.692C1078.61 259.111 1077.74 265.5 1076.01 271.675C1070.69 272.849 1065.14 272.335 1060.12 270.203C1052.76 267.278 1046.45 262.244 1039.39 258.622C1019.51 248.434 995.851 250.444 973.826 253.807C962.892 255.478 950.484 257.03 941.89 249.986C941.594 249.75 941.312 249.498 941.044 249.23C941.498 230.759 949.185 213.227 962.413 200.49C975.642 187.754 993.329 180.857 1011.58 181.316C1029.84 181.775 1047.16 189.553 1059.75 202.939C1072.34 216.324 1079.15 234.221 1078.7 252.692H1078.6Z" fill="black"/>
<path id="Vector_49" opacity="0.05" d="M757.075 466.602C757.075 466.602 808.205 480.531 823.937 516.349C839.669 552.166 882.225 558.713 882.225 558.713" fill="black"/>
<path id="Vector_50" d="M949.795 1254.59H831.803V1292.39H949.795V1254.59Z" fill="#5F5F5F"/>
<path id="Vector_51" d="M849.522 1184.42C860.082 1178.45 869.345 1172.48 870.151 1170.02C870.151 1170.02 896.797 1198.47 920.533 1207.31C928.515 1210.29 936.156 1214.13 943.326 1218.77C952.726 1224.74 966.137 1231.76 978.31 1231.76C978.31 1231.76 1005.84 1255.64 952.745 1259.62C899.649 1263.6 775.757 1249.67 775.757 1249.67L783.623 1199.93C806.607 1201.29 829.49 1195.91 849.522 1184.42Z" fill="#BA1D1D"/>
</g>
<g id="back-wheel">
<path id="Vector_52" d="M501.918 1426.71L489.588 1231.82L489.332 1231.4L476.904 1235.78L419.717 1404.62L328.765 1339.37L473.639 1233.1L473.777 1232.68L474.603 1232.38L483.944 1225.51L332.049 1139.33L294.842 1180.72L300.742 1219.53L475.409 1222.75V1226.73L297.477 1223.5L290.752 1179.45L341.685 1122.82L417.888 1032.88L419.245 1036.6L435.37 1018.69L495.271 1029.55V1027.15L499.204 1027.26V1030.27L588.406 1046.43L505.241 1214.79L493.108 1223.68V1224.68V1225.79L685.435 1157.98L662.603 1339.47L499.381 1234.27L493.639 1231.01L589.881 1387.97L501.918 1426.71ZM494.052 1238.99L505.556 1420.82L584.316 1386.24L494.052 1238.99ZM335.589 1339.33L417.77 1398.29L471.535 1239.62L335.589 1339.33ZM497.474 1228.58L501.584 1230.91L659.594 1332.79L680.833 1163.91L497.474 1228.58ZM483.511 1214.25L488.447 1222.31L489.312 1221.67L495.212 1033.57L436.727 1022.99L420.68 1040.9L483.511 1214.25ZM335.195 1136.53L482.371 1220.1L479.814 1215.86L417.711 1044.2L344.576 1125.52L335.195 1136.53ZM499.204 1034.27L493.304 1218.77L502.193 1212.24L582.644 1049.43L499.204 1034.27Z" fill="#F32113"/>
<path id="Vector_53" d="M717.627 1173.92C709.74 1138.46 693.773 1105.36 671 1077.25C662.546 1066.81 653.224 1057.11 643.134 1048.28C604.342 1014.39 555.527 994.491 504.35 991.709C453.174 988.926 402.532 1003.42 360.375 1032.91C318.217 1062.39 286.929 1105.21 271.421 1154.64C255.913 1204.07 257.063 1257.31 274.691 1306C292.319 1354.69 325.426 1396.09 368.818 1423.68C412.209 1451.28 463.427 1463.52 514.435 1458.48C565.442 1453.43 613.352 1431.4 650.643 1395.82C687.935 1360.25 712.498 1313.16 720.478 1261.93C722.335 1249.87 723.269 1237.68 723.271 1225.48C723.284 1208.13 721.391 1190.84 717.627 1173.92ZM491.102 1401.46C455.248 1401.42 420.275 1390.21 390.94 1369.35C361.604 1348.49 339.329 1319 327.144 1284.88C314.959 1250.76 313.454 1213.67 322.835 1178.65C332.216 1143.64 352.028 1112.39 379.575 1089.17C407.123 1065.95 441.07 1051.88 476.8 1048.87C512.531 1045.86 548.311 1054.05 579.275 1072.34C610.239 1090.63 634.885 1118.13 649.861 1151.09C664.837 1184.06 669.416 1220.89 662.977 1256.58C655.602 1297.26 634.365 1334.03 602.961 1360.5C571.557 1386.97 531.975 1401.47 491.102 1401.46Z" fill="#535461"/>
</g>
<g id="front-wheel">
<path id="Vector_54" d="M1340.03 1427.51L1327.72 1232.7L1327.47 1232.28L1315.04 1236.66L1257.83 1405.42L1166.88 1340.15L1311.79 1233.87L1311.93 1233.45L1312.76 1233.16L1322.1 1226.29L1170.2 1140.11L1132.98 1181.5L1138.88 1220.3L1313.51 1223.45V1227.42L1135.57 1224.2L1128.89 1180.21L1179.8 1123.59L1255.94 1033.71L1257.3 1037.43L1273.43 1019.52L1333.48 1030.41V1028L1337.42 1028.12V1031.13L1426.62 1047.28L1343.38 1215.72L1331.24 1224.62V1225.61V1226.73L1523.59 1158.91L1500.76 1340.41L1337.54 1235.21L1331.79 1231.94L1428.04 1388.92L1340.03 1427.51ZM1332.17 1239.78L1343.67 1421.62L1422.43 1387.03L1332.17 1239.78ZM1173.72 1340.15L1255.91 1399.11L1309.67 1240.44L1173.72 1340.15ZM1335.61 1229.39L1339.72 1231.72L1497.73 1333.6L1518.97 1164.72L1335.61 1229.39ZM1321.65 1215.07L1326.58 1223.13L1327.45 1222.49L1333.35 1034.39L1274.86 1023.76L1258.82 1041.67L1321.65 1215.07ZM1173.39 1137.36L1320.56 1220.94L1318.01 1216.7L1255.91 1045.03L1182.75 1126.38L1173.39 1137.36ZM1337.34 1035.11L1331.44 1219.55L1340.33 1213.02L1420.78 1050.21L1337.34 1035.11Z" fill="#FF0606"/>
<path id="Vector_55" d="M1330.02 992.164C1309.15 992.14 1288.37 994.978 1268.26 1000.6C1257.88 1003.5 1247.72 1007.13 1237.85 1011.49C1185.29 1034.54 1143.04 1076.51 1119.28 1129.26C1095.53 1182.02 1091.95 1241.81 1109.25 1297.08C1126.55 1352.34 1163.49 1399.16 1212.92 1428.46C1262.36 1457.76 1320.78 1467.47 1376.88 1455.71C1432.98 1443.94 1482.77 1411.54 1516.63 1364.78C1550.49 1318.01 1566 1260.2 1560.17 1202.53C1554.34 1144.86 1527.58 1091.43 1485.06 1052.57C1442.54 1013.71 1387.3 992.187 1330 992.164H1330.02ZM1329.24 1402.25C1289.35 1402.24 1250.68 1388.42 1219.63 1363.09C1188.58 1337.76 1167.03 1302.44 1158.55 1263.01C1150.08 1223.57 1155.19 1182.39 1173.04 1146.3C1190.89 1110.21 1220.4 1081.39 1256.67 1064.61C1265.9 1060.34 1275.48 1056.9 1285.31 1054.33C1309.32 1048.02 1334.39 1046.96 1358.84 1051.22C1383.29 1055.48 1406.57 1064.96 1427.12 1079.02C1447.67 1093.09 1465.02 1111.43 1478.02 1132.81C1491.02 1154.2 1499.37 1178.14 1502.52 1203.04C1505.67 1227.94 1503.53 1253.24 1496.27 1277.24C1489 1301.25 1476.76 1323.41 1460.37 1342.26C1443.98 1361.1 1423.81 1376.2 1401.2 1386.55C1378.59 1396.89 1354.07 1402.25 1329.26 1402.25H1329.24Z" fill="#535461"/>
</g>
<g id="hat">
<path id="Vector_56" d="M891.153 209.612C895.342 222.904 915.46 223.322 925.784 233.112C931.153 238.206 933.65 245.728 939.55 250.265C947.75 256.593 959.589 255.2 970.031 253.687C991.053 250.663 1013.63 248.852 1032.59 258.025C1039.31 261.269 1045.35 265.806 1052.37 268.452C1059.39 271.099 1068.1 271.417 1073.8 266.721C1078.37 262.96 1080.04 256.772 1084.17 252.633C1087.37 249.369 1091.84 247.539 1095.5 244.673C1103.52 238.545 1106.98 228.555 1109.26 219.004C1113.98 199.344 1115.34 178.152 1107.29 159.507C1099.25 140.862 1079.9 125.68 1058.78 126.655C1052.31 126.953 1046 128.645 1039.55 129.361C1022.73 131.092 1006.12 125.381 989.244 124.406C984.35 123.804 979.385 124.489 974.829 126.396C971.395 128.328 968.431 131.014 966.157 134.256C958.432 144.495 953.143 156.397 950.7 169.039C948.734 178.57 948.635 187.206 937.092 188.679C923.975 190.43 882.284 181.495 891.153 209.612Z" fill="#472727"/>
</g>
</g>
<defs>
<linearGradient id="paint0_linear" x1="1559.11" y1="112.023" x2="338.754" y2="1428.47" gradientUnits="userSpaceOnUse">
<stop offset="0.0186535" stop-color="#15E1FD" stop-opacity="0.69"/>
<stop offset="0.114583" stop-color="#13DFFC" stop-opacity="0.41"/>
<stop offset="1" stop-color="#9DACBB"/>
</linearGradient>
<clipPath id="clip0">
<rect width="2080" height="1562" fill="white"/>
</clipPath>
</defs>
</svg>
